<mxfile host="app.diagrams.net" modified="2023-10-12T14:50:39.857Z" agent="Mozilla/5.0 (Windows NT 10.0; Win64; x64) AppleWebKit/537.36 (KHTML, like Gecko) Chrome/117.0.0.0 Safari/537.36" etag="sD7afd5mdIpD16WA3HZL" version="22.0.4" type="device">
  <diagram name="Pagina-1" id="i_ts4jNoi178LjrhXezC">
    <mxGraphModel dx="1050" dy="1735" grid="1" gridSize="10" guides="1" tooltips="1" connect="1" arrows="1" fold="1" page="1" pageScale="1" pageWidth="827" pageHeight="1169" math="0" shadow="0">
      <root>
        <mxCell id="0" />
        <mxCell id="1" parent="0" />
        <mxCell id="KOvNAKdBRbF19MtBUXHR-1" value="&lt;font style=&quot;font-size: 37px;&quot;&gt;WEB&lt;/font&gt;" style="ellipse;shape=cloud;whiteSpace=wrap;html=1;" vertex="1" parent="1">
          <mxGeometry x="30" y="-1169" width="700" height="339" as="geometry" />
        </mxCell>
        <mxCell id="KOvNAKdBRbF19MtBUXHR-3" value="" style="whiteSpace=wrap;html=1;aspect=fixed;" vertex="1" parent="1">
          <mxGeometry x="40" y="-560" width="720" height="720" as="geometry" />
        </mxCell>
        <mxCell id="KOvNAKdBRbF19MtBUXHR-4" value="FIREWALL" style="shape=process;whiteSpace=wrap;html=1;backgroundOutline=1;" vertex="1" parent="1">
          <mxGeometry x="260" y="-590" width="330" height="60" as="geometry" />
        </mxCell>
        <mxCell id="KOvNAKdBRbF19MtBUXHR-31" value="" style="edgeStyle=orthogonalEdgeStyle;rounded=0;orthogonalLoop=1;jettySize=auto;html=1;" edge="1" parent="1" source="KOvNAKdBRbF19MtBUXHR-5">
          <mxGeometry relative="1" as="geometry">
            <mxPoint x="90" y="-390" as="targetPoint" />
          </mxGeometry>
        </mxCell>
        <mxCell id="KOvNAKdBRbF19MtBUXHR-5" value="Server&lt;br&gt;Mail" style="rounded=0;whiteSpace=wrap;html=1;direction=south;" vertex="1" parent="1">
          <mxGeometry x="60" y="-620" width="60" height="120" as="geometry" />
        </mxCell>
        <mxCell id="KOvNAKdBRbF19MtBUXHR-29" value="" style="edgeStyle=orthogonalEdgeStyle;rounded=0;orthogonalLoop=1;jettySize=auto;html=1;" edge="1" parent="1" source="KOvNAKdBRbF19MtBUXHR-6">
          <mxGeometry relative="1" as="geometry">
            <mxPoint x="170" y="-390" as="targetPoint" />
          </mxGeometry>
        </mxCell>
        <mxCell id="KOvNAKdBRbF19MtBUXHR-6" value="HTTP" style="rounded=0;whiteSpace=wrap;html=1;direction=south;" vertex="1" parent="1">
          <mxGeometry x="140" y="-620" width="60" height="120" as="geometry" />
        </mxCell>
        <mxCell id="KOvNAKdBRbF19MtBUXHR-7" value="WAF" style="shape=hexagon;perimeter=hexagonPerimeter2;whiteSpace=wrap;html=1;fixedSize=1;" vertex="1" parent="1">
          <mxGeometry x="70" y="-780" width="120" height="80" as="geometry" />
        </mxCell>
        <mxCell id="KOvNAKdBRbF19MtBUXHR-8" value="" style="endArrow=none;dashed=1;html=1;rounded=0;" edge="1" parent="1" target="KOvNAKdBRbF19MtBUXHR-7">
          <mxGeometry width="50" height="50" relative="1" as="geometry">
            <mxPoint x="80" y="-620" as="sourcePoint" />
            <mxPoint x="130" y="-670" as="targetPoint" />
          </mxGeometry>
        </mxCell>
        <mxCell id="KOvNAKdBRbF19MtBUXHR-9" value="" style="endArrow=none;dashed=1;html=1;rounded=0;entryX=0.5;entryY=1;entryDx=0;entryDy=0;" edge="1" parent="1" target="KOvNAKdBRbF19MtBUXHR-7">
          <mxGeometry width="50" height="50" relative="1" as="geometry">
            <mxPoint x="160" y="-620" as="sourcePoint" />
            <mxPoint x="210" y="-670" as="targetPoint" />
          </mxGeometry>
        </mxCell>
        <mxCell id="KOvNAKdBRbF19MtBUXHR-10" value="ROUTER" style="ellipse;whiteSpace=wrap;html=1;" vertex="1" parent="1">
          <mxGeometry x="350" y="-490" width="120" height="80" as="geometry" />
        </mxCell>
        <mxCell id="KOvNAKdBRbF19MtBUXHR-19" value="" style="edgeStyle=orthogonalEdgeStyle;rounded=0;orthogonalLoop=1;jettySize=auto;html=1;" edge="1" parent="1" source="KOvNAKdBRbF19MtBUXHR-12" target="KOvNAKdBRbF19MtBUXHR-18">
          <mxGeometry relative="1" as="geometry" />
        </mxCell>
        <mxCell id="KOvNAKdBRbF19MtBUXHR-21" value="" style="edgeStyle=orthogonalEdgeStyle;rounded=0;orthogonalLoop=1;jettySize=auto;html=1;" edge="1" parent="1" source="KOvNAKdBRbF19MtBUXHR-12" target="KOvNAKdBRbF19MtBUXHR-20">
          <mxGeometry relative="1" as="geometry" />
        </mxCell>
        <mxCell id="KOvNAKdBRbF19MtBUXHR-23" value="" style="edgeStyle=orthogonalEdgeStyle;rounded=0;orthogonalLoop=1;jettySize=auto;html=1;" edge="1" parent="1" source="KOvNAKdBRbF19MtBUXHR-12" target="KOvNAKdBRbF19MtBUXHR-22">
          <mxGeometry relative="1" as="geometry" />
        </mxCell>
        <mxCell id="KOvNAKdBRbF19MtBUXHR-12" value="SWITCH" style="rhombus;whiteSpace=wrap;html=1;" vertex="1" parent="1">
          <mxGeometry x="374" y="-340" width="80" height="80" as="geometry" />
        </mxCell>
        <mxCell id="KOvNAKdBRbF19MtBUXHR-13" value="NAS" style="shape=cylinder3;whiteSpace=wrap;html=1;boundedLbl=1;backgroundOutline=1;size=15;" vertex="1" parent="1">
          <mxGeometry x="630" y="-420" width="60" height="80" as="geometry" />
        </mxCell>
        <mxCell id="KOvNAKdBRbF19MtBUXHR-14" value="SERVER&lt;br&gt;SUPER&lt;br&gt;SEGRETO" style="shape=cylinder3;whiteSpace=wrap;html=1;boundedLbl=1;backgroundOutline=1;size=15;" vertex="1" parent="1">
          <mxGeometry x="630" y="-290" width="60" height="80" as="geometry" />
        </mxCell>
        <mxCell id="KOvNAKdBRbF19MtBUXHR-15" value="" style="endArrow=none;html=1;rounded=0;exitX=0.5;exitY=0;exitDx=0;exitDy=0;" edge="1" parent="1" source="KOvNAKdBRbF19MtBUXHR-12">
          <mxGeometry width="50" height="50" relative="1" as="geometry">
            <mxPoint x="364" y="-360" as="sourcePoint" />
            <mxPoint x="414" y="-410" as="targetPoint" />
          </mxGeometry>
        </mxCell>
        <mxCell id="KOvNAKdBRbF19MtBUXHR-18" value="" style="shape=waypoint;sketch=0;size=6;pointerEvents=1;points=[];fillColor=default;resizable=0;rotatable=0;perimeter=centerPerimeter;snapToPoint=1;" vertex="1" parent="1">
          <mxGeometry x="404" y="-150" width="20" height="20" as="geometry" />
        </mxCell>
        <mxCell id="KOvNAKdBRbF19MtBUXHR-20" value="" style="shape=waypoint;sketch=0;size=6;pointerEvents=1;points=[];fillColor=default;resizable=0;rotatable=0;perimeter=centerPerimeter;snapToPoint=1;" vertex="1" parent="1">
          <mxGeometry x="564" y="-310" width="20" height="20" as="geometry" />
        </mxCell>
        <mxCell id="KOvNAKdBRbF19MtBUXHR-22" value="" style="shape=waypoint;sketch=0;size=6;pointerEvents=1;points=[];fillColor=default;resizable=0;rotatable=0;perimeter=centerPerimeter;snapToPoint=1;" vertex="1" parent="1">
          <mxGeometry x="244" y="-310" width="20" height="20" as="geometry" />
        </mxCell>
        <mxCell id="KOvNAKdBRbF19MtBUXHR-25" value="" style="endArrow=none;html=1;rounded=0;" edge="1" parent="1" source="KOvNAKdBRbF19MtBUXHR-3" target="KOvNAKdBRbF19MtBUXHR-3">
          <mxGeometry width="50" height="50" relative="1" as="geometry">
            <mxPoint x="350" y="-260" as="sourcePoint" />
            <mxPoint x="400" y="-310" as="targetPoint" />
          </mxGeometry>
        </mxCell>
        <mxCell id="KOvNAKdBRbF19MtBUXHR-26" value="I&lt;br&gt;P&lt;br&gt;S" style="rounded=0;whiteSpace=wrap;html=1;direction=south;" vertex="1" parent="1">
          <mxGeometry x="230" y="-360" width="30" height="120" as="geometry" />
        </mxCell>
        <mxCell id="KOvNAKdBRbF19MtBUXHR-27" value="" style="endArrow=none;html=1;rounded=0;" edge="1" parent="1">
          <mxGeometry width="50" height="50" relative="1" as="geometry">
            <mxPoint x="90" y="-389.99857142857155" as="sourcePoint" />
            <mxPoint x="170" y="-390" as="targetPoint" />
            <Array as="points">
              <mxPoint x="130" y="-390" />
            </Array>
          </mxGeometry>
        </mxCell>
        <mxCell id="KOvNAKdBRbF19MtBUXHR-32" value="" style="endArrow=none;html=1;rounded=0;exitX=0.562;exitY=1.027;exitDx=0;exitDy=0;exitPerimeter=0;" edge="1" parent="1" source="KOvNAKdBRbF19MtBUXHR-26">
          <mxGeometry width="50" height="50" relative="1" as="geometry">
            <mxPoint x="80" y="-340" as="sourcePoint" />
            <mxPoint x="130" y="-390" as="targetPoint" />
          </mxGeometry>
        </mxCell>
        <mxCell id="KOvNAKdBRbF19MtBUXHR-33" value="I&lt;br&gt;D&lt;br&gt;S" style="rounded=0;whiteSpace=wrap;html=1;direction=south;" vertex="1" parent="1">
          <mxGeometry x="570" y="-360" width="30" height="120" as="geometry" />
        </mxCell>
        <mxCell id="KOvNAKdBRbF19MtBUXHR-34" value="" style="endArrow=none;html=1;rounded=0;exitX=0.435;exitY=-0.067;exitDx=0;exitDy=0;exitPerimeter=0;" edge="1" parent="1" source="KOvNAKdBRbF19MtBUXHR-33">
          <mxGeometry width="50" height="50" relative="1" as="geometry">
            <mxPoint x="610" y="-290" as="sourcePoint" />
            <mxPoint x="660" y="-340" as="targetPoint" />
          </mxGeometry>
        </mxCell>
        <mxCell id="KOvNAKdBRbF19MtBUXHR-35" value="" style="endArrow=none;html=1;rounded=0;entryX=0.608;entryY=0.04;entryDx=0;entryDy=0;entryPerimeter=0;" edge="1" parent="1" target="KOvNAKdBRbF19MtBUXHR-33">
          <mxGeometry width="50" height="50" relative="1" as="geometry">
            <mxPoint x="630" y="-260" as="sourcePoint" />
            <mxPoint x="590" y="-230" as="targetPoint" />
            <Array as="points" />
          </mxGeometry>
        </mxCell>
        <mxCell id="KOvNAKdBRbF19MtBUXHR-36" value="" style="endArrow=none;html=1;rounded=0;exitX=0.5;exitY=0;exitDx=0;exitDy=0;" edge="1" parent="1" source="KOvNAKdBRbF19MtBUXHR-10">
          <mxGeometry width="50" height="50" relative="1" as="geometry">
            <mxPoint x="360" y="-480" as="sourcePoint" />
            <mxPoint x="410" y="-530" as="targetPoint" />
          </mxGeometry>
        </mxCell>
        <mxCell id="KOvNAKdBRbF19MtBUXHR-37" value="" style="sketch=0;pointerEvents=1;shadow=0;dashed=0;html=1;strokeColor=none;fillColor=#505050;labelPosition=center;verticalLabelPosition=bottom;verticalAlign=top;outlineConnect=0;align=center;shape=mxgraph.office.devices.workstation_pc;" vertex="1" parent="1">
          <mxGeometry x="244" y="-80" width="53" height="59" as="geometry" />
        </mxCell>
        <mxCell id="KOvNAKdBRbF19MtBUXHR-38" value="" style="sketch=0;pointerEvents=1;shadow=0;dashed=0;html=1;strokeColor=none;fillColor=#505050;labelPosition=center;verticalLabelPosition=bottom;verticalAlign=top;outlineConnect=0;align=center;shape=mxgraph.office.devices.workstation_pc;" vertex="1" parent="1">
          <mxGeometry x="384" y="-80" width="53" height="59" as="geometry" />
        </mxCell>
        <mxCell id="KOvNAKdBRbF19MtBUXHR-39" value="" style="sketch=0;pointerEvents=1;shadow=0;dashed=0;html=1;strokeColor=none;fillColor=#505050;labelPosition=center;verticalLabelPosition=bottom;verticalAlign=top;outlineConnect=0;align=center;shape=mxgraph.office.devices.workstation_pc;" vertex="1" parent="1">
          <mxGeometry x="547" y="-80" width="53" height="59" as="geometry" />
        </mxCell>
        <mxCell id="KOvNAKdBRbF19MtBUXHR-40" value="" style="endArrow=none;html=1;rounded=0;" edge="1" parent="1" target="KOvNAKdBRbF19MtBUXHR-18">
          <mxGeometry width="50" height="50" relative="1" as="geometry">
            <mxPoint x="280" y="-70" as="sourcePoint" />
            <mxPoint x="330" y="-120" as="targetPoint" />
          </mxGeometry>
        </mxCell>
        <mxCell id="KOvNAKdBRbF19MtBUXHR-41" value="" style="endArrow=none;html=1;rounded=0;" edge="1" parent="1" target="KOvNAKdBRbF19MtBUXHR-38">
          <mxGeometry width="50" height="50" relative="1" as="geometry">
            <mxPoint x="411" y="-140" as="sourcePoint" />
            <mxPoint x="470" y="-190" as="targetPoint" />
          </mxGeometry>
        </mxCell>
        <mxCell id="KOvNAKdBRbF19MtBUXHR-42" value="" style="endArrow=none;html=1;rounded=0;exitX=0.94;exitY=0.63;exitDx=0;exitDy=0;exitPerimeter=0;" edge="1" parent="1" source="KOvNAKdBRbF19MtBUXHR-18" target="KOvNAKdBRbF19MtBUXHR-39">
          <mxGeometry width="50" height="50" relative="1" as="geometry">
            <mxPoint x="430" y="-110" as="sourcePoint" />
            <mxPoint x="480" y="-160" as="targetPoint" />
          </mxGeometry>
        </mxCell>
        <mxCell id="KOvNAKdBRbF19MtBUXHR-43" value="PC1&amp;nbsp; &amp;nbsp; &amp;nbsp; &amp;nbsp; &amp;nbsp; &amp;nbsp; &amp;nbsp; &amp;nbsp; &amp;nbsp; &amp;nbsp; &amp;nbsp; &amp;nbsp; &amp;nbsp; &amp;nbsp; &amp;nbsp; &amp;nbsp; &amp;nbsp;PC2&amp;nbsp; &amp;nbsp; &amp;nbsp; &amp;nbsp; &amp;nbsp; &amp;nbsp; &amp;nbsp; &amp;nbsp; &amp;nbsp; &amp;nbsp; &amp;nbsp; &amp;nbsp; &amp;nbsp; &amp;nbsp; &amp;nbsp; &amp;nbsp; &amp;nbsp; &amp;nbsp; &amp;nbsp; &amp;nbsp; &amp;nbsp; &amp;nbsp; PC3&amp;nbsp;" style="text;strokeColor=none;align=center;fillColor=none;html=1;verticalAlign=middle;whiteSpace=wrap;rounded=0;" vertex="1" parent="1">
          <mxGeometry x="230" width="400" height="30" as="geometry" />
        </mxCell>
        <mxCell id="KOvNAKdBRbF19MtBUXHR-44" value="&lt;font style=&quot;font-size: 14px;&quot;&gt;In questa esercitazione siamo andati a creare una struttura di rete e l&#39;abbiamo impostata nel modo più sicuro per le determinate&lt;br&gt;caratteristiche della rete stessa.&lt;br&gt;Abbiamo un Firewall dinamico perimetrale, che quindi autorizza solo connessioni &quot;sicure&quot;, ovvero che partono da noi in primis.&lt;br&gt;Nella DMZ abbiamo un server HTTP e un servizio Mail, ovviamente la nostra DMZ è protetta da&amp;nbsp; un WAF (Web Application Firewall)&lt;br&gt;Come ulteriore protezione immediatamente dopo questi due server, ma all&#39;interno della rete abbiamo impostato un IPS.&lt;br&gt;Quest ultimo nel caso in cui dovesse riscontrare un anomalia, provvederà ad avvisare il cybersecurity e bloccare l&#39;eventuale minaccia,&amp;nbsp;&lt;br&gt;in modo che non possa entrare nel &quot;vivo&quot; della nostra LAN.&lt;br&gt;Mentre a difesa del nostro Server super segreto e del NAS abbiamo attivato un IDS, quest ultimo a differenza dell IPS provvederà ad&amp;nbsp;&lt;br&gt;avvisarci in caso di anomalie, ma non bloccherà eventuali minacce, starà poi al responsabile della sicurezza verificare cosa sia successo.&lt;/font&gt;" style="text;strokeColor=none;align=center;fillColor=none;html=1;verticalAlign=middle;whiteSpace=wrap;rounded=0;" vertex="1" parent="1">
          <mxGeometry x="40" y="200" width="740" height="410" as="geometry" />
        </mxCell>
      </root>
    </mxGraphModel>
  </diagram>
</mxfile>
